<?xml version="1.0" encoding="UTF-8" standalone="no"?>
<svg
   width="768"
   height="240"
   version="1.1"
   id="svg14"
   sodipodi:docname="Kill la Kill logo.svg"
   inkscape:version="1.2.2 (b0a8486541, 2022-12-01)"
   inkscape:export-filename="Kill la Kill logo.png"
   inkscape:export-xdpi="96"
   inkscape:export-ydpi="96"
   xmlns:inkscape="http://www.inkscape.org/namespaces/inkscape"
   xmlns:sodipodi="http://sodipodi.sourceforge.net/DTD/sodipodi-0.dtd"
   xmlns:xlink="http://www.w3.org/1999/xlink"
   xmlns="http://www.w3.org/2000/svg"
   xmlns:svg="http://www.w3.org/2000/svg"
   xmlns:rdf="http://www.w3.org/1999/02/22-rdf-syntax-ns#"
   xmlns:cc="http://creativecommons.org/ns#"
   xmlns:dc="http://purl.org/dc/elements/1.1/">
  <defs
     id="defs18">
    <inkscape:path-effect
       effect="powerclip"
       id="path-effect39170"
       is_visible="true"
       lpeversion="1"
       inverse="true"
       flatten="false"
       hide_clip="false"
       message="Use fill-rule evenodd on &lt;b&gt;fill and stroke&lt;/b&gt; dialog if no flatten result after convert clip to paths." />
    <inkscape:perspective
       sodipodi:type="inkscape:persp3d"
       inkscape:vp_x="0 : 120 : 1"
       inkscape:vp_y="0 : 1000 : 0"
       inkscape:vp_z="768 : 120 : 1"
       inkscape:persp3d-origin="384 : 80 : 1"
       id="perspective35408" />
    <linearGradient
       inkscape:collect="always"
       id="linearGradient7470">
      <stop
         style="stop-color:#da1d24;stop-opacity:1;"
         offset="0"
         id="stop7466" />
      <stop
         style="stop-color:#7b1818;stop-opacity:1;"
         offset="1"
         id="stop7468" />
    </linearGradient>
    <linearGradient
       inkscape:collect="always"
       xlink:href="#linearGradient7470"
       id="linearGradient7472"
       x1="-339.67587"
       y1="-813.46326"
       x2="-336.47888"
       y2="232.87044"
       gradientUnits="userSpaceOnUse"
       gradientTransform="matrix(0.17640571,0,0,0.17640571,416.04711,177.1696)" />
    <clipPath
       clipPathUnits="userSpaceOnUse"
       id="clipPath39156">
      <path
         d="m 357.83323,193.98106 0.0409,-25.04961 2.50496,-1.07784 c 6.01544,-2.59316 10.70783,-5.50385 14.23594,-8.8732 1.95811,-1.85226 4.14554,-4.79824 3.82801,-5.13341 -0.0482,-0.0482 -4.65711,0.38457 -10.23153,0.96141 -5.57442,0.57685 -10.21389,1.01081 -10.28446,0.96494 -0.0752,-0.0464 -0.13653,-11.27232 -0.13653,-24.8732 v -24.87321 l 0.84851,-0.0965 c 2.78721,-0.31753 68.44541,-5.23925 68.44541,-5.13341 0.0588,0.0681 0.0543,14.85336 -0.01,32.81146 -0.12578,35.28115 -0.0857,33.8699 -0.97729,38.10364 -3.93384,18.699 -20.28665,33.34068 -47.45313,42.33737 -6.22713,2.08158 -13.0011,3.828 -18.69901,4.81587 l -2.22271,0.3881 0.0409,-25.04962 z m -176.22931,2.01103 c -0.0861,-0.11114 -0.27166,-0.92966 -0.41279,-1.81698 -1.1925,-7.51488 -5.36273,-32.45865 -5.45093,-32.63506 -0.0822,-0.13301 -3.43992,0.0372 -12.43661,0.63154 -6.77398,0.44807 -12.47188,0.81323 -12.63065,0.81323 -0.30341,0 -0.30871,-0.48512 -0.30871,-25.22602 v -25.22602 l 0.60684,-0.003 c 1.31775,-0.007 16.40573,-0.95612 16.49393,-1.03727 0.11467,-0.11466 -0.59978,-4.65711 -0.77618,-4.957 -0.13107,-0.21169 -3.7398,0.0466 -15.38258,1.10254 l -0.92966,0.0843 V 56.740897 l 1.01081,-0.09596 c 0.55568,-0.05274 2.29327,-0.183462 3.88092,-0.289305 1.64587,-0.111312 2.92834,-0.269901 3.01654,-0.370452 0.0841,-0.105138 -0.73208,-5.450937 -2.01102,-13.195147 -1.18721,-7.162072 -2.15215,-13.177507 -2.16979,-13.371553 l -0.005,-0.363396 25.57882,0.10161 c 14.05954,0.05592 25.57883,0.146946 25.75524,0.202866 0.0596,0.05539 0.91025,5.256891 1.88754,11.554574 0.97729,6.297684 1.83462,11.501653 1.88754,11.554574 0.0529,0.05292 5.41566,-0.275192 11.92503,-0.730319 6.50937,-0.455127 11.88974,-0.793826 11.9603,-0.753253 0.0667,0.04093 0.12119,11.166482 0.12119,24.6968 v 24.696804 l -0.36339,0.0757 c -0.19934,0.0416 -3.81037,0.37221 -8.0441,0.7356 -4.2161,0.3634 -7.74421,0.72326 -7.81478,0.80089 -0.1764,0.17641 0.78148,6.31533 1.00728,6.45645 0.0907,0.0561 3.49283,-0.096 7.56781,-0.33693 4.07497,-0.24168 7.46196,-0.38633 7.51488,-0.3193 0.0669,0.066 0.10337,11.27233 0.0808,24.8732 l -0.0409,24.8732 -3.66924,0.24168 c -2.01103,0.13336 -3.70452,0.2893 -3.77508,0.34752 -0.0575,0.0575 1.2119,8.55567 2.82249,18.87541 1.60882,10.31973 2.87541,18.87541 2.82249,18.87541 -0.15718,0.25402 -49.3936,0.20816 -49.57001,-0.0466 z m 53.45093,0.0341 c 0,-0.0924 0.14095,-0.44455 0.31224,-0.78148 2.82249,-5.5215 3.93385,-38.80926 3.06946,-91.73097 -0.25579,-15.753031 -0.76207,-37.398011 -1.12371,-47.982354 -0.0822,-2.399118 -0.0944,-4.410143 -0.0272,-4.480705 0.0672,-0.06721 11.67806,-0.103903 25.75523,-0.08132 l 25.75524,0.04093 0.10302,4.357221 c 0.23285,9.843439 0.34222,61.212788 0.15788,73.384778 -0.53804,35.81036 -1.71114,55.21499 -3.828,63.68246 -0.39692,1.58412 -1.04609,3.12238 -1.41478,3.36935 -0.30871,0.19581 -48.68797,0.15383 -48.68797,-0.0427 z m 58.21389,0.0543 c -0.0559,-0.0559 -0.10179,-32.63506 -0.10179,-72.50275 V 51.074975 h 25.04961 c 13.81257,0 25.22602,0.05451 25.22602,0.121191 0.0333,0.06668 -0.14166,18.346193 -0.3881,40.573313 -0.24696,22.227121 -0.43395,42.513781 -0.41455,44.983451 l 0.0346,4.53363 10.51378,0.16159 0.0409,23.99118 c 0.0252,14.83572 -0.0173,24.16758 -0.11078,24.16758 -0.0834,0.0834 -13.26571,1.55413 -29.28335,3.2635 -16.03528,1.71467 -29.45975,3.15767 -29.81256,3.21059 -0.36693,0.0476 -0.71092,0.0408 -0.76737,-0.0152 z m 170.23151,-0.10937 c -0.0471,-0.1226 -1.34774,-7.88534 -2.89306,-17.23484 -1.54355,-9.3495 -2.87541,-17.07607 -2.94597,-17.16428 -0.0884,-0.0882 -5.09813,0.1817 -12.56009,0.67564 -6.8269,0.4516 -12.50716,0.78324 -12.63065,0.73737 -0.31576,-0.12083 -0.33517,-49.92281 -0.0203,-50.09922 0.11167,-0.0908 3.91621,-0.38633 8.50276,-0.65976 4.56891,-0.27166 8.36163,-0.55215 8.43219,-0.62271 0.15065,-0.15894 -0.61742,-4.76295 -0.8291,-4.97464 -0.099,-0.0995 -2.9989,0.0931 -8.07939,0.53451 -4.35722,0.37927 -7.99117,0.64565 -8.07938,0.59096 -0.21168,-0.13107 -0.2258,-50.628439 -0.0132,-50.804845 0.0817,-0.05045 1.85226,-0.208159 3.9162,-0.351047 2.08159,-0.143065 3.82801,-0.321059 3.91621,-0.395149 0.0849,-0.0785 -0.77266,-5.697905 -2.06395,-13.495037 -1.21367,-7.356118 -2.18743,-13.389193 -2.15215,-13.424474 0.0305,-0.03052 11.58986,-0.0073 25.75524,0.05169 l 25.57882,0.107255 0.0857,0.418082 c 0.0471,0.229327 0.85733,5.398014 1.79934,11.484011 0.94377,6.085997 1.78169,11.148841 1.8699,11.219403 0.0928,0.09808 4.46306,-0.147827 11.97794,-0.673869 6.50937,-0.455127 11.88975,-0.793826 11.96031,-0.751489 0.0684,0.04234 0.12437,11.131201 0.12437,24.6968 v 24.520389 l -0.3634,0.14712 c -0.19934,0.081 -3.84564,0.44631 -8.11466,0.81147 -4.3043,0.36869 -7.79713,0.73737 -7.85006,0.82911 -0.0967,0.15629 0.0355,1.15016 0.63154,4.74531 l 0.26813,1.61588 0.88909,0.0457 c 0.48864,0.0252 3.89856,-0.13547 7.58544,-0.35633 3.68688,-0.22228 6.75634,-0.36516 6.8269,-0.3193 0.0706,0.0459 0.13531,11.23704 0.13531,24.87321 v 24.8732 l -0.3634,0.0764 c -0.19934,0.042 -1.74465,0.15595 -3.43991,0.25227 -3.79272,0.21874 -3.79272,0.2205 -3.79272,0.73031 0,0.22051 1.27365,8.57332 2.82249,18.5226 1.5559,9.98457 2.82249,18.3462 2.82249,18.5226 v 0.43396 h -24.8732 c -20.99228,0 -24.87321,-0.0348 -24.87321,-0.22227 z m 53.62733,0.12278 c -0.0557,-0.0558 0.0478,-0.39339 0.23109,-0.75149 3.58104,-7.02095 4.37486,-57.15545 2.13451,-134.773965 -0.14447,-4.992282 -0.2205,-9.190738 -0.16829,-9.331862 0.0838,-0.218744 2.92834,-0.245204 25.75524,-0.245204 18.16978,0 25.57882,0.0508 25.75523,0.174641 0.41279,0.668578 0.61565,65.97574 0.25932,83.61631 -0.74973,37.0452 -2.20508,55.7442 -4.67476,60.50716 l -0.44101,0.82205 -24.34399,0.0409 c -13.38919,0.0226 -24.34399,-0.005 -24.52039,-0.0603 z m 58.21389,-0.0991 c -0.0427,-0.11255 -0.0591,-32.81147 -0.0363,-72.50275 l 0.0413,-72.326343 25.04961,-0.04093 c 20.11025,-0.03281 25.04961,0 25.22601,0.164234 0.0434,0.1129 -0.14042,20.286657 -0.40749,44.983456 -0.26814,24.520393 -0.44631,44.807053 -0.39692,44.807053 0.0501,0.081 2.39912,0.14518 5.32746,0.14518 h 5.23924 v 48.51157 l -0.60683,0.0961 c -0.33341,0.0529 -13.54796,1.47652 -29.45975,3.15767 -15.8236,1.68644 -29.10695,3.10474 -29.45976,3.15766 -0.41102,0.0589 -0.63506,0.0208 -0.68798,-0.11713 z M 357.83323,76.215258 c 0,-13.865489 0.0182,-25.226016 0.0404,-25.226016 0.0222,-0.0016 15.52371,-1.197795 34.39912,-2.663726 18.87541,-1.462404 34.39911,-2.628446 34.57552,-2.575524 0.0759,0.04692 0.13794,11.607496 0.13794,25.755234 v 25.578828 l -1.0108,0.09791 c -0.79912,0.07744 -67.56339,4.286666 -68.0926,4.286666 -0.0621,0 -0.1129,-11.342894 -0.1129,-25.226024 z"
         style="display:inline;fill:url(#linearGradient39160);fill-opacity:1;stroke-width:0.176406"
         id="path39158" />
    </clipPath>
    <linearGradient
       inkscape:collect="always"
       xlink:href="#linearGradient7470"
       id="linearGradient39160"
       gradientUnits="userSpaceOnUse"
       gradientTransform="matrix(0.17640571,0,0,0.17640571,416.04711,177.1696)"
       x1="-339.67587"
       y1="-813.46326"
       x2="-336.47888"
       y2="232.87044" />
    <clipPath
       clipPathUnits="userSpaceOnUse"
       id="clipPath39164">
      <path
         d="m 357.83323,193.98106 0.0409,-25.04961 2.50496,-1.07784 c 6.01544,-2.59316 10.70783,-5.50385 14.23594,-8.8732 1.95811,-1.85226 4.14554,-4.79824 3.82801,-5.13341 -0.0482,-0.0482 -4.65711,0.38457 -10.23153,0.96141 -5.57442,0.57685 -10.21389,1.01081 -10.28446,0.96494 -0.0752,-0.0464 -0.13653,-11.27232 -0.13653,-24.8732 v -24.87321 l 0.84851,-0.0965 c 2.78721,-0.31753 68.44541,-5.23925 68.44541,-5.13341 0.0588,0.0681 0.0543,14.85336 -0.01,32.81146 -0.12578,35.28115 -0.0857,33.8699 -0.97729,38.10364 -3.93384,18.699 -20.28665,33.34068 -47.45313,42.33737 -6.22713,2.08158 -13.0011,3.828 -18.69901,4.81587 l -2.22271,0.3881 0.0409,-25.04962 z m -176.22931,2.01103 c -0.0861,-0.11114 -0.27166,-0.92966 -0.41279,-1.81698 -1.1925,-7.51488 -5.36273,-32.45865 -5.45093,-32.63506 -0.0822,-0.13301 -3.43992,0.0372 -12.43661,0.63154 -6.77398,0.44807 -12.47188,0.81323 -12.63065,0.81323 -0.30341,0 -0.30871,-0.48512 -0.30871,-25.22602 v -25.22602 l 0.60684,-0.003 c 1.31775,-0.007 16.40573,-0.95612 16.49393,-1.03727 0.11467,-0.11466 -0.59978,-4.65711 -0.77618,-4.957 -0.13107,-0.21169 -3.7398,0.0466 -15.38258,1.10254 l -0.92966,0.0843 V 56.740897 l 1.01081,-0.09596 c 0.55568,-0.05274 2.29327,-0.183462 3.88092,-0.289305 1.64587,-0.111312 2.92834,-0.269901 3.01654,-0.370452 0.0841,-0.105138 -0.73208,-5.450937 -2.01102,-13.195147 -1.18721,-7.162072 -2.15215,-13.177507 -2.16979,-13.371553 l -0.005,-0.363396 25.57882,0.10161 c 14.05954,0.05592 25.57883,0.146946 25.75524,0.202866 0.0596,0.05539 0.91025,5.256891 1.88754,11.554574 0.97729,6.297684 1.83462,11.501653 1.88754,11.554574 0.0529,0.05292 5.41566,-0.275192 11.92503,-0.730319 6.50937,-0.455127 11.88974,-0.793826 11.9603,-0.753253 0.0667,0.04093 0.12119,11.166482 0.12119,24.6968 v 24.696804 l -0.36339,0.0757 c -0.19934,0.0416 -3.81037,0.37221 -8.0441,0.7356 -4.2161,0.3634 -7.74421,0.72326 -7.81478,0.80089 -0.1764,0.17641 0.78148,6.31533 1.00728,6.45645 0.0907,0.0561 3.49283,-0.096 7.56781,-0.33693 4.07497,-0.24168 7.46196,-0.38633 7.51488,-0.3193 0.0669,0.066 0.10337,11.27233 0.0808,24.8732 l -0.0409,24.8732 -3.66924,0.24168 c -2.01103,0.13336 -3.70452,0.2893 -3.77508,0.34752 -0.0575,0.0575 1.2119,8.55567 2.82249,18.87541 1.60882,10.31973 2.87541,18.87541 2.82249,18.87541 -0.15718,0.25402 -49.3936,0.20816 -49.57001,-0.0466 z m 53.45093,0.0341 c 0,-0.0924 0.14095,-0.44455 0.31224,-0.78148 2.82249,-5.5215 3.93385,-38.80926 3.06946,-91.73097 -0.25579,-15.753031 -0.76207,-37.398011 -1.12371,-47.982354 -0.0822,-2.399118 -0.0944,-4.410143 -0.0272,-4.480705 0.0672,-0.06721 11.67806,-0.103903 25.75523,-0.08132 l 25.75524,0.04093 0.10302,4.357221 c 0.23285,9.843439 0.34222,61.212788 0.15788,73.384778 -0.53804,35.81036 -1.71114,55.21499 -3.828,63.68246 -0.39692,1.58412 -1.04609,3.12238 -1.41478,3.36935 -0.30871,0.19581 -48.68797,0.15383 -48.68797,-0.0427 z m 58.21389,0.0543 c -0.0559,-0.0559 -0.10179,-32.63506 -0.10179,-72.50275 V 51.074975 h 25.04961 c 13.81257,0 25.22602,0.05451 25.22602,0.121191 0.0333,0.06668 -0.14166,18.346193 -0.3881,40.573313 -0.24696,22.227121 -0.43395,42.513781 -0.41455,44.983451 l 0.0346,4.53363 10.51378,0.16159 0.0409,23.99118 c 0.0252,14.83572 -0.0173,24.16758 -0.11078,24.16758 -0.0834,0.0834 -13.26571,1.55413 -29.28335,3.2635 -16.03528,1.71467 -29.45975,3.15767 -29.81256,3.21059 -0.36693,0.0476 -0.71092,0.0408 -0.76737,-0.0152 z m 170.23151,-0.10937 c -0.0471,-0.1226 -1.34774,-7.88534 -2.89306,-17.23484 -1.54355,-9.3495 -2.87541,-17.07607 -2.94597,-17.16428 -0.0884,-0.0882 -5.09813,0.1817 -12.56009,0.67564 -6.8269,0.4516 -12.50716,0.78324 -12.63065,0.73737 -0.31576,-0.12083 -0.33517,-49.92281 -0.0203,-50.09922 0.11167,-0.0908 3.91621,-0.38633 8.50276,-0.65976 4.56891,-0.27166 8.36163,-0.55215 8.43219,-0.62271 0.15065,-0.15894 -0.61742,-4.76295 -0.8291,-4.97464 -0.099,-0.0995 -2.9989,0.0931 -8.07939,0.53451 -4.35722,0.37927 -7.99117,0.64565 -8.07938,0.59096 -0.21168,-0.13107 -0.2258,-50.628439 -0.0132,-50.804845 0.0817,-0.05045 1.85226,-0.208159 3.9162,-0.351047 2.08159,-0.143065 3.82801,-0.321059 3.91621,-0.395149 0.0849,-0.0785 -0.77266,-5.697905 -2.06395,-13.495037 -1.21367,-7.356118 -2.18743,-13.389193 -2.15215,-13.424474 0.0305,-0.03052 11.58986,-0.0073 25.75524,0.05169 l 25.57882,0.107255 0.0857,0.418082 c 0.0471,0.229327 0.85733,5.398014 1.79934,11.484011 0.94377,6.085997 1.78169,11.148841 1.8699,11.219403 0.0928,0.09808 4.46306,-0.147827 11.97794,-0.673869 6.50937,-0.455127 11.88975,-0.793826 11.96031,-0.751489 0.0684,0.04234 0.12437,11.131201 0.12437,24.6968 v 24.520389 l -0.3634,0.14712 c -0.19934,0.081 -3.84564,0.44631 -8.11466,0.81147 -4.3043,0.36869 -7.79713,0.73737 -7.85006,0.82911 -0.0967,0.15629 0.0355,1.15016 0.63154,4.74531 l 0.26813,1.61588 0.88909,0.0457 c 0.48864,0.0252 3.89856,-0.13547 7.58544,-0.35633 3.68688,-0.22228 6.75634,-0.36516 6.8269,-0.3193 0.0706,0.0459 0.13531,11.23704 0.13531,24.87321 v 24.8732 l -0.3634,0.0764 c -0.19934,0.042 -1.74465,0.15595 -3.43991,0.25227 -3.79272,0.21874 -3.79272,0.2205 -3.79272,0.73031 0,0.22051 1.27365,8.57332 2.82249,18.5226 1.5559,9.98457 2.82249,18.3462 2.82249,18.5226 v 0.43396 h -24.8732 c -20.99228,0 -24.87321,-0.0348 -24.87321,-0.22227 z m 53.62733,0.12278 c -0.0557,-0.0558 0.0478,-0.39339 0.23109,-0.75149 3.58104,-7.02095 4.37486,-57.15545 2.13451,-134.773965 -0.14447,-4.992282 -0.2205,-9.190738 -0.16829,-9.331862 0.0838,-0.218744 2.92834,-0.245204 25.75524,-0.245204 18.16978,0 25.57882,0.0508 25.75523,0.174641 0.41279,0.668578 0.61565,65.97574 0.25932,83.61631 -0.74973,37.0452 -2.20508,55.7442 -4.67476,60.50716 l -0.44101,0.82205 -24.34399,0.0409 c -13.38919,0.0226 -24.34399,-0.005 -24.52039,-0.0603 z m 58.21389,-0.0991 c -0.0427,-0.11255 -0.0591,-32.81147 -0.0363,-72.50275 l 0.0413,-72.326343 25.04961,-0.04093 c 20.11025,-0.03281 25.04961,0 25.22601,0.164234 0.0434,0.1129 -0.14042,20.286657 -0.40749,44.983456 -0.26814,24.520393 -0.44631,44.807053 -0.39692,44.807053 0.0501,0.081 2.39912,0.14518 5.32746,0.14518 h 5.23924 v 48.51157 l -0.60683,0.0961 c -0.33341,0.0529 -13.54796,1.47652 -29.45975,3.15767 -15.8236,1.68644 -29.10695,3.10474 -29.45976,3.15766 -0.41102,0.0589 -0.63506,0.0208 -0.68798,-0.11713 z M 357.83323,76.215258 c 0,-13.865489 0.0182,-25.226016 0.0404,-25.226016 0.0222,-0.0016 15.52371,-1.197795 34.39912,-2.663726 18.87541,-1.462404 34.39911,-2.628446 34.57552,-2.575524 0.0759,0.04692 0.13794,11.607496 0.13794,25.755234 v 25.578828 l -1.0108,0.09791 c -0.79912,0.07744 -67.56339,4.286666 -68.0926,4.286666 -0.0621,0 -0.1129,-11.342894 -0.1129,-25.226024 z"
         style="display:none;fill:url(#linearGradient39168);fill-opacity:1;stroke-width:0.176406"
         id="path39166" />
      <path
         id="lpe_path-effect39170"
         style="fill:url(#linearGradient39168);fill-opacity:1;stroke-width:0.176406"
         class="powerclip"
         d="M -297.74596,-242.84096 H 898.69728 V 430.65857 H -297.74596 Z m 655.57919,436.82202 -0.07,0.22279 -0.0409,25.04962 2.22271,-0.3881 c 5.69791,-0.98787 12.47188,-2.73429 18.69901,-4.81587 27.16648,-8.99669 43.51929,-23.63837 47.45313,-42.33737 0.89159,-4.23374 0.85151,-2.82249 0.97729,-38.10364 0.0643,-17.9581 0.0688,-32.74336 0.01,-32.81146 0,-0.10584 -65.6582,4.81588 -68.44541,5.13341 l -0.84851,0.0965 v 24.87321 c 0,13.60088 0.0613,24.8268 0.13653,24.8732 0.0706,0.0459 4.71004,-0.38809 10.28446,-0.96494 5.57442,-0.57684 10.18333,-1.00961 10.23153,-0.96141 0.31753,0.33517 -1.8699,3.28115 -3.82801,5.13341 -3.52811,3.36935 -8.2205,6.28004 -14.23594,8.8732 l -2.50496,1.07784 z m -176.22931,2.01103 0.14903,-0.16112 c 0.17641,0.25476 49.41283,0.30062 49.57001,0.0466 0.0529,0 -1.21367,-8.55568 -2.82249,-18.87541 -1.61059,-10.31974 -2.87999,-18.81791 -2.82249,-18.87541 0.0706,-0.0582 1.76405,-0.21416 3.77508,-0.34752 l 3.66924,-0.24168 0.0409,-24.8732 c 0.0226,-13.60087 -0.0139,-24.8072 -0.0808,-24.8732 -0.0529,-0.067 -3.43991,0.0776 -7.51488,0.3193 -4.07498,0.24093 -7.47711,0.39303 -7.56781,0.33693 -0.2258,-0.14112 -1.18368,-6.28004 -1.00728,-6.45645 0.0706,-0.0776 3.59868,-0.43749 7.81478,-0.80089 4.23373,-0.36339 7.84476,-0.694 8.0441,-0.7356 l 0.36339,-0.0757 V 75.681936 c 0,-13.530318 -0.0545,-24.65587 -0.12119,-24.6968 -0.0706,-0.04057 -5.45093,0.298126 -11.9603,0.753253 -6.50937,0.455127 -11.87213,0.783239 -11.92503,0.730319 -0.0529,-0.05292 -0.91025,-5.25689 -1.88754,-11.554574 -0.97729,-6.297683 -1.82794,-11.499184 -1.88754,-11.554574 -0.17641,-0.05592 -11.6957,-0.146946 -25.75524,-0.202866 l -25.57882,-0.10161 0.005,0.363396 c 0.0176,0.194046 0.98258,6.209481 2.16979,13.371553 1.27894,7.74421 2.09512,13.090009 2.01102,13.195147 -0.0882,0.100551 -1.37067,0.25914 -3.01654,0.370452 -1.58765,0.105843 -3.32524,0.236565 -3.88092,0.289305 l -1.01081,0.09596 v 50.981453 l 0.92966,-0.0843 c 11.64278,-1.05594 15.25151,-1.31423 15.38258,-1.10254 0.1764,0.29989 0.89085,4.84234 0.77618,4.957 -0.0882,0.0812 -15.17618,1.03027 -16.49393,1.03727 l -0.60684,0.003 v 25.22602 c 0,24.7409 0.005,25.22602 0.30871,25.22602 0.15877,0 5.85667,-0.36516 12.63065,-0.81323 8.99669,-0.59434 12.35441,-0.76455 12.43661,-0.63154 0.0882,0.17641 4.25843,25.12018 5.45093,32.63506 0.14113,0.88732 0.32669,1.70584 0.41279,1.81698 z m 53.45093,0.0341 0.0714,-0.26479 c 0,0.19653 48.37926,0.23851 48.68797,0.0427 0.36869,-0.24697 1.01786,-1.78523 1.41478,-3.36935 2.11686,-8.46747 3.28996,-27.8721 3.828,-63.68246 0.18434,-12.17199 0.075,-63.541339 -0.15788,-73.384778 l -0.10302,-4.357221 -25.75524,-0.04093 c -14.07717,-0.02258 -25.68803,0.01411 -25.75523,0.08132 -0.0672,0.07056 -0.055,2.081587 0.0272,4.480705 0.36164,10.584343 0.86792,32.229323 1.12371,47.982354 0.86439,52.92171 -0.24697,86.20947 -3.06946,91.73097 -0.17129,0.33693 -0.31224,0.68908 -0.31224,0.78148 z m 58.21389,0.0543 -0.0136,-0.0147 c 0.0564,0.056 0.40044,0.0628 0.76737,0.0152 0.35281,-0.0529 13.77728,-1.49592 29.81256,-3.21059 16.01764,-1.70937 29.19995,-3.1801 29.28335,-3.2635 0.0935,0 0.13598,-9.33186 0.11078,-24.16758 l -0.0409,-23.99118 -10.51378,-0.16159 -0.0346,-4.53363 c -0.0194,-2.46967 0.16759,-22.75633 0.41455,-44.983451 0.24644,-22.22712 0.4214,-40.506633 0.3881,-40.573313 0,-0.06668 -11.41345,-0.121191 -25.22602,-0.121191 h -25.04961 v 72.502765 c 0,39.86769 0.0459,72.44685 0.10179,72.50275 z m 170.23151,-0.10937 -0.0374,-0.034 c 0,0.18747 3.88093,0.22227 24.87321,0.22227 h 24.8732 v -0.43396 c 0,-0.1764 -1.26659,-8.53803 -2.82249,-18.5226 -1.54884,-9.94928 -2.82249,-18.30209 -2.82249,-18.5226 0,-0.50981 0,-0.51157 3.79272,-0.73031 1.69526,-0.0963 3.24057,-0.21027 3.43991,-0.25227 l 0.3634,-0.0764 v -24.8732 c 0,-13.63617 -0.0647,-24.82731 -0.13531,-24.87321 -0.0706,-0.0459 -3.14002,0.097 -6.8269,0.3193 -3.68688,0.22086 -7.0968,0.38153 -7.58544,0.35633 l -0.88909,-0.0457 -0.26813,-1.61588 c -0.59604,-3.59515 -0.72824,-4.58902 -0.63154,-4.74531 0.0529,-0.0917 3.54576,-0.46042 7.85006,-0.82911 4.26902,-0.36516 7.91532,-0.73047 8.11466,-0.81147 l 0.3634,-0.14712 V 75.835481 c 0,-13.565599 -0.056,-24.65446 -0.12437,-24.6968 -0.0706,-0.04234 -5.45094,0.296362 -11.96031,0.751489 -7.51488,0.526042 -11.88514,0.771949 -11.97794,0.673869 -0.0882,-0.07056 -0.92613,-5.133406 -1.8699,-11.219403 -0.94201,-6.085997 -1.75224,-11.254684 -1.79934,-11.484011 l -0.0857,-0.418082 -25.57882,-0.107255 c -14.16538,-0.05899 -25.72474,-0.08221 -25.75524,-0.05169 -0.0353,0.03528 0.93848,6.068356 2.15215,13.424474 1.29129,7.797132 2.14885,13.416537 2.06395,13.495037 -0.0882,0.07409 -1.83462,0.252084 -3.91621,0.395149 -2.06394,0.142888 -3.8345,0.300597 -3.9162,0.351047 -0.2126,0.176406 -0.19848,50.673775 0.0132,50.804845 0.0882,0.0547 3.72216,-0.21169 8.07938,-0.59096 5.08049,-0.44141 7.98039,-0.63401 8.07939,-0.53451 0.21168,0.21169 0.97975,4.8157 0.8291,4.97464 -0.0706,0.0706 -3.86328,0.35105 -8.43219,0.62271 -4.58655,0.27343 -8.39109,0.56896 -8.50276,0.65976 -0.31487,0.17641 -0.29546,49.97839 0.0203,50.09922 0.12349,0.0459 5.80375,-0.28577 12.63065,-0.73737 7.46196,-0.49394 12.47169,-0.76384 12.56009,-0.67564 0.0706,0.0882 1.40242,7.81478 2.94597,17.16428 1.54532,9.3495 2.84596,17.11224 2.89306,17.23484 z m 53.62733,0.12278 -0.0131,-0.002 c 0.1764,0.0553 11.1312,0.0829 24.52039,0.0603 l 24.34399,-0.0409 0.44101,-0.82205 c 2.46968,-4.76296 3.92503,-23.46196 4.67476,-60.50716 0.35633,-17.64057 0.15347,-82.947732 -0.25932,-83.61631 -0.17641,-0.123841 -7.58545,-0.174641 -25.75523,-0.174641 -22.8269,0 -25.67144,0.02646 -25.75524,0.245204 -0.0522,0.141124 0.0238,4.33958 0.16829,9.331862 2.24035,77.618515 1.44653,127.753015 -2.13451,134.773965 -0.18329,0.3581 -0.28679,0.69569 -0.23109,0.75149 z m 58.21389,-0.0991 -0.17141,0.0358 c 0.0529,0.13793 0.27696,0.17603 0.68798,0.11713 0.35281,-0.0529 13.63616,-1.47122 29.45976,-3.15766 15.91179,-1.68115 29.12634,-3.10477 29.45975,-3.15767 l 0.60683,-0.0961 v -48.5116 h -5.23924 c -2.92834,0 -5.27736,-0.0642 -5.32746,-0.14518 -0.0494,0 0.12878,-20.28666 0.39692,-44.807053 0.26707,-24.696799 0.45089,-44.870556 0.40749,-44.983456 -0.1764,-0.164234 -5.11576,-0.197044 -25.22601,-0.164234 l -25.04961,0.04093 -0.0413,72.326343 c -0.0228,39.69128 -0.006,72.3902 0.0363,72.50275 z M 357.83323,76.215258 l -0.0633,0.02735 c 0,13.88313 0.0508,25.226022 0.1129,25.226022 0.52921,0 67.29348,-4.209224 68.0926,-4.286664 l 1.0108,-0.09791 v -25.57883 c 0,-14.147738 -0.062,-25.708314 -0.13794,-25.755234 -0.17641,-0.05292 -15.70011,1.11312 -34.57552,2.575524 -18.87541,1.465931 -34.37692,2.662126 -34.39912,2.663726 -0.0222,0 -0.0404,11.360527 -0.0404,25.226016 z" />
    </clipPath>
    <linearGradient
       inkscape:collect="always"
       xlink:href="#linearGradient7470"
       id="linearGradient39168"
       gradientUnits="userSpaceOnUse"
       gradientTransform="matrix(0.17640571,0,0,0.17640571,416.04711,177.1696)"
       x1="-339.67587"
       y1="-813.46326"
       x2="-336.47888"
       y2="232.87044" />
  </defs>
  <sodipodi:namedview
     id="namedview16"
     pagecolor="#000000"
     bordercolor="#000000"
     borderopacity="0.25"
     inkscape:showpageshadow="2"
     inkscape:pageopacity="1"
     inkscape:pagecheckerboard="0"
     inkscape:deskcolor="#d1d1d1"
     showgrid="false"
     inkscape:zoom="1.1909176"
     inkscape:cx="254.00582"
     inkscape:cy="108.31984"
     inkscape:window-width="1916"
     inkscape:window-height="1041"
     inkscape:window-x="0"
     inkscape:window-y="18"
     inkscape:window-maximized="1"
     inkscape:current-layer="svg14" />
  <title
     id="title2">Kill la Kill logo</title>
  <metadata
     id="metadata4">
    <rdf:RDF>
      <cc:Work
         rdf:about="">
        <dc:format>image/svg+xml</dc:format>
        <dc:type
           rdf:resource="http://purl.org/dc/dcmitype/StillImage" />
        <dc:title>Kill la Kill logo</dc:title>
      </cc:Work>
    </rdf:RDF>
  </metadata>
  <path
     d="m 357.83323,193.98106 0.0409,-25.04961 2.50496,-1.07784 c 6.01544,-2.59316 10.70783,-5.50385 14.23594,-8.8732 1.95811,-1.85226 4.14554,-4.79824 3.82801,-5.13341 -0.0482,-0.0482 -4.65711,0.38457 -10.23153,0.96141 -5.57442,0.57685 -10.21389,1.01081 -10.28446,0.96494 -0.0752,-0.0464 -0.13653,-11.27232 -0.13653,-24.8732 v -24.87321 l 0.84851,-0.0965 c 2.78721,-0.31753 68.44541,-5.23925 68.44541,-5.13341 0.0588,0.0681 0.0543,14.85336 -0.01,32.81146 -0.12578,35.28115 -0.0857,33.8699 -0.97729,38.10364 -3.93384,18.699 -20.28665,33.34068 -47.45313,42.33737 -6.22713,2.08158 -13.0011,3.828 -18.69901,4.81587 l -2.22271,0.3881 0.0409,-25.04962 z m -176.22931,2.01103 c -0.0861,-0.11114 -0.27166,-0.92966 -0.41279,-1.81698 -1.1925,-7.51488 -5.36273,-32.45865 -5.45093,-32.63506 -0.0822,-0.13301 -3.43992,0.0372 -12.43661,0.63154 -6.77398,0.44807 -12.47188,0.81323 -12.63065,0.81323 -0.30341,0 -0.30871,-0.48512 -0.30871,-25.22602 v -25.22602 l 0.60684,-0.003 c 1.31775,-0.007 16.40573,-0.95612 16.49393,-1.03727 0.11467,-0.11466 -0.59978,-4.65711 -0.77618,-4.957 -0.13107,-0.21169 -3.7398,0.0466 -15.38258,1.10254 l -0.92966,0.0843 V 56.740897 l 1.01081,-0.09596 c 0.55568,-0.05274 2.29327,-0.183462 3.88092,-0.289305 1.64587,-0.111312 2.92834,-0.269901 3.01654,-0.370452 0.0841,-0.105138 -0.73208,-5.450937 -2.01102,-13.195147 -1.18721,-7.162072 -2.15215,-13.177507 -2.16979,-13.371553 l -0.005,-0.363396 25.57882,0.10161 c 14.05954,0.05592 25.57883,0.146946 25.75524,0.202866 0.0596,0.05539 0.91025,5.256891 1.88754,11.554574 0.97729,6.297684 1.83462,11.501653 1.88754,11.554574 0.0529,0.05292 5.41566,-0.275192 11.92503,-0.730319 6.50937,-0.455127 11.88974,-0.793826 11.9603,-0.753253 0.0667,0.04093 0.12119,11.166482 0.12119,24.6968 v 24.696804 l -0.36339,0.0757 c -0.19934,0.0416 -3.81037,0.37221 -8.0441,0.7356 -4.2161,0.3634 -7.74421,0.72326 -7.81478,0.80089 -0.1764,0.17641 0.78148,6.31533 1.00728,6.45645 0.0907,0.0561 3.49283,-0.096 7.56781,-0.33693 4.07497,-0.24168 7.46196,-0.38633 7.51488,-0.3193 0.0669,0.066 0.10337,11.27233 0.0808,24.8732 l -0.0409,24.8732 -3.66924,0.24168 c -2.01103,0.13336 -3.70452,0.2893 -3.77508,0.34752 -0.0575,0.0575 1.2119,8.55567 2.82249,18.87541 1.60882,10.31973 2.87541,18.87541 2.82249,18.87541 -0.15718,0.25402 -49.3936,0.20816 -49.57001,-0.0466 z m 53.45093,0.0341 c 0,-0.0924 0.14095,-0.44455 0.31224,-0.78148 2.82249,-5.5215 3.93385,-38.80926 3.06946,-91.73097 -0.25579,-15.753031 -0.76207,-37.398011 -1.12371,-47.982354 -0.0822,-2.399118 -0.0944,-4.410143 -0.0272,-4.480705 0.0672,-0.06721 11.67806,-0.103903 25.75523,-0.08132 l 25.75524,0.04093 0.10302,4.357221 c 0.23285,9.843439 0.34222,61.212788 0.15788,73.384778 -0.53804,35.81036 -1.71114,55.21499 -3.828,63.68246 -0.39692,1.58412 -1.04609,3.12238 -1.41478,3.36935 -0.30871,0.19581 -48.68797,0.15383 -48.68797,-0.0427 z m 58.21389,0.0543 c -0.0559,-0.0559 -0.10179,-32.63506 -0.10179,-72.50275 V 51.074975 h 25.04961 c 13.81257,0 25.22602,0.05451 25.22602,0.121191 0.0333,0.06668 -0.14166,18.346193 -0.3881,40.573313 -0.24696,22.227121 -0.43395,42.513781 -0.41455,44.983451 l 0.0346,4.53363 10.51378,0.16159 0.0409,23.99118 c 0.0252,14.83572 -0.0173,24.16758 -0.11078,24.16758 -0.0834,0.0834 -13.26571,1.55413 -29.28335,3.2635 -16.03528,1.71467 -29.45975,3.15767 -29.81256,3.21059 -0.36693,0.0476 -0.71092,0.0408 -0.76737,-0.0152 z m 170.23151,-0.10937 c -0.0471,-0.1226 -1.34774,-7.88534 -2.89306,-17.23484 -1.54355,-9.3495 -2.87541,-17.07607 -2.94597,-17.16428 -0.0884,-0.0882 -5.09813,0.1817 -12.56009,0.67564 -6.8269,0.4516 -12.50716,0.78324 -12.63065,0.73737 -0.31576,-0.12083 -0.33517,-49.92281 -0.0203,-50.09922 0.11167,-0.0908 3.91621,-0.38633 8.50276,-0.65976 4.56891,-0.27166 8.36163,-0.55215 8.43219,-0.62271 0.15065,-0.15894 -0.61742,-4.76295 -0.8291,-4.97464 -0.099,-0.0995 -2.9989,0.0931 -8.07939,0.53451 -4.35722,0.37927 -7.99117,0.64565 -8.07938,0.59096 -0.21168,-0.13107 -0.2258,-50.628439 -0.0132,-50.804845 0.0817,-0.05045 1.85226,-0.208159 3.9162,-0.351047 2.08159,-0.143065 3.82801,-0.321059 3.91621,-0.395149 0.0849,-0.0785 -0.77266,-5.697905 -2.06395,-13.495037 -1.21367,-7.356118 -2.18743,-13.389193 -2.15215,-13.424474 0.0305,-0.03052 11.58986,-0.0073 25.75524,0.05169 l 25.57882,0.107255 0.0857,0.418082 c 0.0471,0.229327 0.85733,5.398014 1.79934,11.484011 0.94377,6.085997 1.78169,11.148841 1.8699,11.219403 0.0928,0.09808 4.46306,-0.147827 11.97794,-0.673869 6.50937,-0.455127 11.88975,-0.793826 11.96031,-0.751489 0.0684,0.04234 0.12437,11.131201 0.12437,24.6968 v 24.520389 l -0.3634,0.14712 c -0.19934,0.081 -3.84564,0.44631 -8.11466,0.81147 -4.3043,0.36869 -7.79713,0.73737 -7.85006,0.82911 -0.0967,0.15629 0.0355,1.15016 0.63154,4.74531 l 0.26813,1.61588 0.88909,0.0457 c 0.48864,0.0252 3.89856,-0.13547 7.58544,-0.35633 3.68688,-0.22228 6.75634,-0.36516 6.8269,-0.3193 0.0706,0.0459 0.13531,11.23704 0.13531,24.87321 v 24.8732 l -0.3634,0.0764 c -0.19934,0.042 -1.74465,0.15595 -3.43991,0.25227 -3.79272,0.21874 -3.79272,0.2205 -3.79272,0.73031 0,0.22051 1.27365,8.57332 2.82249,18.5226 1.5559,9.98457 2.82249,18.3462 2.82249,18.5226 v 0.43396 h -24.8732 c -20.99228,0 -24.87321,-0.0348 -24.87321,-0.22227 z m 53.62733,0.12278 c -0.0557,-0.0558 0.0478,-0.39339 0.23109,-0.75149 3.58104,-7.02095 4.37486,-57.15545 2.13451,-134.773965 -0.14447,-4.992282 -0.2205,-9.190738 -0.16829,-9.331862 0.0838,-0.218744 2.92834,-0.245204 25.75524,-0.245204 18.16978,0 25.57882,0.0508 25.75523,0.174641 0.41279,0.668578 0.61565,65.97574 0.25932,83.61631 -0.74973,37.0452 -2.20508,55.7442 -4.67476,60.50716 l -0.44101,0.82205 -24.34399,0.0409 c -13.38919,0.0226 -24.34399,-0.005 -24.52039,-0.0603 z m 58.21389,-0.0991 c -0.0427,-0.11255 -0.0591,-32.81147 -0.0363,-72.50275 l 0.0413,-72.326343 25.04961,-0.04093 c 20.11025,-0.03281 25.04961,0 25.22601,0.164234 0.0434,0.1129 -0.14042,20.286657 -0.40749,44.983456 -0.26814,24.520393 -0.44631,44.807053 -0.39692,44.807053 0.0501,0.081 2.39912,0.14518 5.32746,0.14518 h 5.23924 v 48.51157 l -0.60683,0.0961 c -0.33341,0.0529 -13.54796,1.47652 -29.45975,3.15767 -15.8236,1.68644 -29.10695,3.10474 -29.45976,3.15766 -0.41102,0.0589 -0.63506,0.0208 -0.68798,-0.11713 z M 357.83323,76.215258 c 0,-13.865489 0.0182,-25.226016 0.0404,-25.226016 0.0222,-0.0016 15.52371,-1.197795 34.39912,-2.663726 18.87541,-1.462404 34.39911,-2.628446 34.57552,-2.575524 0.0759,0.04692 0.13794,11.607496 0.13794,25.755234 v 25.578828 l -1.0108,0.09791 c -0.79912,0.07744 -67.56339,4.286666 -68.0926,4.286666 -0.0621,0 -0.1129,-11.342894 -0.1129,-25.226024 z"
     style="fill:url(#linearGradient7472);fill-opacity:1;stroke-width:0.176406"
     id="path8" />
  <g
     id="g39053"
     clip-path="url(#clipPath39164)"
     inkscape:path-effect="#path-effect39170"
     style="stroke:#ea0000;stroke-opacity:1;stroke-width:1.5;stroke-dasharray:none">
    <path
       style="fill:none;fill-opacity:1;stroke:#ea0000;stroke-opacity:1;stroke-width:1.5;stroke-dasharray:none"
       d="M -25.465439,81.095813 835.38751,201.74117"
       id="path13116"
       sodipodi:nodetypes="cc"
       inkscape:original-d="M -25.465439,81.095813 835.38751,201.74117" />
    <path
       style="fill:none;fill-opacity:1;stroke:#ea0000;stroke-opacity:1;stroke-width:1.5;stroke-dasharray:none"
       d="M 28.751854,305.16553 791.3795,-110.98481"
       id="path20082"
       inkscape:original-d="M 28.751854,305.16553 791.3795,-110.98481" />
    <path
       style="fill:none;fill-opacity:1;stroke:#ea0000;stroke-opacity:1;stroke-width:1.5;stroke-dasharray:none"
       d="M -212.28683,297.09075 478.48108,-133.59507"
       id="path20810"
       sodipodi:nodetypes="cc"
       inkscape:original-d="M -212.28683,297.09075 478.48108,-133.59507" />
    <path
       style="fill:none;fill-opacity:1;stroke:#ea0000;stroke-opacity:1;stroke-width:1.5;stroke-dasharray:none"
       d="M -292.70608,138.75174 881.44687,44.79882"
       id="path20812"
       sodipodi:nodetypes="cc"
       inkscape:original-d="M -292.70608,138.75174 881.44687,44.79882" />
    <path
       style="fill:none;fill-opacity:1;stroke:#ea0000;stroke-opacity:1;stroke-width:1.5;stroke-dasharray:none"
       d="M -99.826006,-73.234763 881.57141,273.05446"
       id="path21540"
       sodipodi:nodetypes="cc"
       inkscape:original-d="M -99.826006,-73.234763 881.57141,273.05446" />
    <path
       style="fill:none;fill-opacity:1;stroke:#ea0000;stroke-opacity:1;stroke-width:1.5;stroke-dasharray:none"
       d="M -39.302621,144.09778 850.55849,210.04066"
       id="path22996"
       inkscape:original-d="M -39.302621,144.09778 850.55849,210.04066" />
    <path
       style="fill:none;fill-opacity:1;stroke:#ea0000;stroke-opacity:1;stroke-width:1.5;stroke-dasharray:none"
       d="M -11.427289,343.83908 675.81222,-218.21997"
       id="path23724"
       sodipodi:nodetypes="cc"
       inkscape:original-d="M -11.427289,343.83908 675.81222,-218.21997" />
    <path
       style="fill:none;fill-opacity:1;stroke:#ea0000;stroke-opacity:1;stroke-width:1.5;stroke-dasharray:none"
       d="M 457.5944,420.45426 667.97028,-171.61849"
       id="path26630"
       sodipodi:nodetypes="cc"
       inkscape:original-d="M 457.5944,420.45426 667.97028,-171.61849" />
    <path
       style="fill:none;fill-opacity:1;stroke:#ea0000;stroke-opacity:1;stroke-width:1.5;stroke-dasharray:none"
       d="m 534.53435,-237.79676 58.87553,663.41113"
       id="path26632"
       sodipodi:nodetypes="cc"
       inkscape:original-d="m 534.53435,-237.79676 58.87553,663.41113" />
    <path
       style="fill:none;fill-opacity:1;stroke:#ea0000;stroke-opacity:1;stroke-width:1.5;stroke-dasharray:none"
       d="M -138.06085,-68.732263 408.5276,416.93115"
       id="path32444"
       sodipodi:nodetypes="cc"
       inkscape:original-d="M -138.06085,-68.732263 408.5276,416.93115" />
    <path
       style="fill:none;fill-opacity:1;stroke:#ea0000;stroke-opacity:1;stroke-width:1.5;stroke-dasharray:none"
       d="M 70.21202,371.27897 893.50141,20.740525"
       id="path35410"
       inkscape:original-d="M 70.21202,371.27897 893.50141,20.740525" />
  </g>
  <g
     id="g39081"
     clip-path="url(#clipPath39156)"
     style="stroke-width:1.5;stroke-dasharray:none">
    <path
       style="fill:none;fill-opacity:1;stroke:#ffffff;stroke-opacity:1;stroke-width:1.5;stroke-dasharray:none"
       d="M -25.465439,81.095813 835.38751,201.74117"
       id="path39059"
       sodipodi:nodetypes="cc" />
    <path
       style="fill:none;fill-opacity:1;stroke:#ffffff;stroke-opacity:1;stroke-width:1.5;stroke-dasharray:none"
       d="M 28.751854,305.16553 791.3795,-110.98481"
       id="path39061" />
    <path
       style="fill:none;fill-opacity:1;stroke:#ffffff;stroke-opacity:1;stroke-width:1.5;stroke-dasharray:none"
       d="M -212.28683,297.09075 478.48108,-133.59507"
       id="path39063"
       sodipodi:nodetypes="cc" />
    <path
       style="fill:none;fill-opacity:1;stroke:#ffffff;stroke-opacity:1;stroke-width:1.5;stroke-dasharray:none"
       d="M -292.70608,138.75174 881.44687,44.79882"
       id="path39065"
       sodipodi:nodetypes="cc" />
    <path
       style="fill:none;fill-opacity:1;stroke:#ffffff;stroke-opacity:1;stroke-width:1.5;stroke-dasharray:none"
       d="M -99.826006,-73.234763 881.57141,273.05446"
       id="path39067"
       sodipodi:nodetypes="cc" />
    <path
       style="fill:none;fill-opacity:1;stroke:#ffffff;stroke-opacity:1;stroke-width:1.5;stroke-dasharray:none"
       d="M -39.302621,144.09778 850.55849,210.04066"
       id="path39069" />
    <path
       style="fill:none;fill-opacity:1;stroke:#ffffff;stroke-opacity:1;stroke-width:1.5;stroke-dasharray:none"
       d="M -11.427289,343.83908 675.81222,-218.21997"
       id="path39071"
       sodipodi:nodetypes="cc" />
    <path
       style="fill:none;fill-opacity:1;stroke:#ffffff;stroke-opacity:1;stroke-width:1.5;stroke-dasharray:none"
       d="M 457.5944,420.45426 667.97028,-171.61849"
       id="path39073"
       sodipodi:nodetypes="cc" />
    <path
       style="fill:none;fill-opacity:1;stroke:#ffffff;stroke-opacity:1;stroke-width:1.5;stroke-dasharray:none"
       d="m 534.53435,-237.79676 58.87553,663.41113"
       id="path39075"
       sodipodi:nodetypes="cc" />
    <path
       style="fill:none;fill-opacity:1;stroke:#ffffff;stroke-opacity:1;stroke-width:1.5;stroke-dasharray:none"
       d="M -138.06085,-68.732263 408.5276,416.93115"
       id="path39077"
       sodipodi:nodetypes="cc" />
    <path
       style="fill:none;fill-opacity:1;stroke:#ffffff;stroke-opacity:1;stroke-width:1.5;stroke-dasharray:none"
       d="M 70.21202,371.27897 893.50141,20.740525"
       id="path39079" />
  </g>
  <path
     d="m 412.43079,226.5632 c 0,-0.0176 0.50805,-2.87541 1.13076,-6.33297 0.62095,-3.45755 1.70761,-9.5259 2.41676,-13.45975 l 1.28424,-7.16207 5.00992,-0.004 c 4.92172,-0.004 5.00992,-0.003 5.00992,0.0235 0,0.0149 -0.36869,2.08159 -0.81852,4.58655 -0.44984,2.50496 -0.81853,4.56891 -0.81853,4.58655 0,0.0378 0.11502,0.0154 0.23815,-0.046 0.25226,-0.12718 0.52216,-0.47276 0.63153,-0.8097 0.0208,-0.0642 0.37046,-1.97574 0.77443,-4.23373 l 0.73737,-4.11026 5.00992,-0.004 c 4.51599,-0.003 5.00993,-0.001 5.00993,0.0185 0,0.0409 -1.30011,7.26791 -1.34774,7.49724 -0.26461,1.25072 -0.75326,2.25799 -1.50474,3.12238 -0.71974,0.81852 -1.70761,1.48357 -2.85778,1.92282 -0.091,0.0346 -0.17023,0.069 -0.17623,0.0762 -0.006,0.007 0.0533,0.0434 0.13143,0.0804 0.74266,0.35105 1.34244,0.88027 1.83462,1.6194 0.32282,0.48688 0.54862,0.98082 0.6968,1.52944 0.11113,0.41103 0.16582,0.9226 0.13548,1.2666 -0.0143,0.16247 -1.70761,9.70231 -1.74465,9.82579 l -0.009,0.0321 h -4.99229 c -4.72767,0 -4.99228,-0.001 -4.99228,-0.0247 0,-0.0201 1.13958,-6.38588 1.61059,-8.99669 0.14765,-0.81852 0.16688,-0.9914 0.13936,-1.23837 -0.0325,-0.29283 -0.11273,-0.48158 -0.24873,-0.59096 -0.10126,-0.0804 -0.24521,-0.11872 -0.27873,-0.0737 -0.009,0.0118 -0.45336,2.46968 -0.9861,5.45093 -0.53451,2.98126 -0.97553,5.4333 -0.98082,5.45094 -0.009,0.0236 -0.26461,0.0251 -5.00992,0.0251 h -5.00992 v -0.0321 z m 21.5215,0.005 c 0,-0.0333 4.81588,-26.81367 4.83352,-26.99007 l 0.01,-0.0321 h 10.01984 l -0.001,0.0392 c 0,0.0215 -1.08666,6.086 -2.41676,13.49504 l -2.41676,13.45976 -5.00992,0.004 c -4.93936,0.004 -5.00992,0.003 -5.00992,-0.024 z m 10.70783,-0.0165 c 0,-0.0554 4.81587,-26.99007 4.83351,-26.99007 0.0142,-0.0174 10.01985,-0.0146 10.01985,0.003 0,0.008 -0.66858,3.7398 -1.4871,8.30871 -0.81853,4.56891 -1.4871,8.30871 -1.4871,8.32635 0,0.0325 0.008,0.0399 0.0452,0.0399 0.0249,0 0.92083,-0.0801 1.99338,-0.17817 1.06902,-0.0979 1.9581,-0.1734 1.9581,-0.16758 0.0165,0.0132 -1.65645,9.42006 -1.67761,9.4377 -0.0151,0.0117 -14.00662,1.20662 -14.1301,1.20662 -0.0559,3.5e-4 -0.0612,-0.003 -0.0612,-0.0438 z m 14.65931,10e-4 c 0,-0.0487 4.81588,-26.99008 4.83352,-26.99008 0.0119,-0.024 10.01984,-0.0265 10.01984,-0.002 0,0.008 -0.66858,3.73981 -1.4871,8.30871 -0.81852,4.56891 -1.4871,8.30871 -1.4871,8.32635 0,0.0318 0.008,0.0388 0.0466,0.0388 0.0256,0 0.92084,-0.0801 1.99339,-0.17817 1.06902,-0.0981 1.9581,-0.1734 1.9581,-0.16758 0.0167,0.0132 -1.65645,9.42006 -1.67762,9.4377 -0.0152,0.0117 -14.00661,1.20662 -14.1301,1.20662 -0.0556,3.5e-4 -0.0612,-0.004 -0.0612,-0.0425 z m 16.38809,0.0142 c 0,-0.0323 4.81588,-26.81367 4.83352,-26.99007 l 0.01,-0.0321 h 4.03969 c 2.22271,0 4.05733,0.005 4.05733,0.0114 0.005,0.006 -1.07961,6.086 -2.41676,13.49504 -1.3301,7.40904 -2.41676,13.47739 -2.41676,13.49503 0,0.0176 -1.81698,0.0112 -4.05733,0.0112 -4.05733,0 -4.05733,0 -4.05733,-0.0288 z m 13.42448,-0.0702 c -0.74444,-0.28401 -1.47299,-0.74619 -2.04631,-1.30187 -0.98964,-0.96141 -1.55061,-2.18743 -1.67409,-3.66924 -0.0284,-0.34399 -0.0119,-1.24719 0.0289,-1.58412 0.17517,-1.44124 0.67563,-3.03418 1.35127,-4.32194 0.51334,-0.972 1.10606,-1.75348 1.85226,-2.4344 0.2452,-0.2258 0.79206,-0.63506 1.07784,-0.80794 0.61212,-0.37045 1.26306,-0.63859 1.90518,-0.78148 0.37398,-0.0845 -0.0739,-0.0788 6.3506,-0.0788 h 5.89195 l -0.0115,0.082 c -0.0112,0.0803 -2.66373,14.83572 -2.68137,14.94156 l -0.0112,0.0535 h -11.7839 l -0.25932,-0.0988 z m 4.85115,-4.02205 c 0,-0.01 0.28754,-1.52943 0.64036,-3.36935 0.35281,-1.83991 0.64035,-3.36934 0.64035,-3.38699 0,-0.0432 -0.052,-0.004 -0.19581,0.14677 -0.72679,0.76737 -1.30011,1.92283 -1.54532,3.12239 -0.0988,0.48511 -0.1136,0.64211 -0.11395,1.20485 0,0.56626 0.0147,0.71973 0.11501,1.16957 0.0797,0.3581 0.28225,0.91378 0.39515,1.08136 0.0273,0.0406 0.0632,0.0528 0.0632,0.0214 z m 9.52591,4.09262 c 0,-0.0165 0.46571,-2.62845 1.03727,-5.80375 0.56979,-3.1753 1.65645,-9.22602 2.41675,-13.45976 l 1.3795,-7.69129 10.01984,-0.007 v 0.0303 c 0,0.0166 -0.36339,2.06394 -0.80794,4.53362 -0.44454,2.48732 -0.81499,4.55127 -0.82205,4.58655 l -0.0132,0.0771 0.0683,-0.008 c 0.28048,-0.0344 0.63329,-0.40397 0.79382,-0.83264 0.0349,-0.0933 0.24168,-1.20838 0.78148,-4.23374 0.40397,-2.25799 0.73914,-4.11025 0.74443,-4.12789 l 0.0101,-0.0321 h 4.99228 c 4.74531,0 4.99228,0.001 4.99228,0.025 0,0.0566 -1.32481,7.40904 -1.37596,7.63837 -0.3193,1.41654 -0.96671,2.55788 -1.95811,3.47519 -0.1817,0.16653 -0.60331,0.49218 -0.83087,0.64212 -0.46395,0.30342 -1.00198,0.57508 -1.54531,0.78324 -0.0847,0.0323 -0.15859,0.0644 -0.16441,0.0714 -0.006,0.007 0.0656,0.0496 0.15859,0.0942 0.59625,0.28577 1.13605,0.7215 1.56119,1.25777 0.26813,0.33693 0.57508,0.86439 0.72679,1.24013 0.25049,0.62624 0.35457,1.12018 0.35281,1.68291 v 0.34223 l -0.86792,4.83352 c -0.47806,2.66372 -0.8732,4.85115 -0.8785,4.86879 l -0.01,0.0321 h -4.99228 c -4.42778,0 -4.99228,-0.002 -4.99228,-0.0214 0,-0.0118 0.38985,-2.18743 0.86615,-4.85115 0.4763,-2.66373 0.87497,-4.92172 0.88556,-5.00993 0.0302,-0.28577 -0.014,-0.59272 -0.11431,-0.79735 -0.043,-0.0873 -0.16247,-0.19934 -0.24697,-0.23286 -0.0833,-0.0326 -0.16547,-0.0275 -0.17817,0.0112 -0.006,0.0176 -0.44807,2.46968 -0.98435,5.46858 l -0.97376,5.43329 -10.01984,0.007 v -0.03 z m 21.5215,0.006 c 0,-0.0302 4.81587,-26.81367 4.83351,-26.99008 l 0.01,-0.0321 h 10.01984 v 0.0321 c 0,0.0379 -4.81587,26.99008 -4.83352,26.99008 -0.006,0.0142 -1.02668,0.0178 -5.00992,0.0178 -4.67475,0 -5.00992,-0.002 -5.00992,-0.024 z m 10.70782,-0.0167 c 0,-0.0464 4.81588,-26.99007 4.83352,-26.99007 0.0125,-0.0259 10.01985,-0.0263 10.01985,-3.6e-4 0,0.01 -0.66858,3.75745 -1.48711,8.30871 -0.81852,4.56891 -1.4871,8.30871 -1.4871,8.32635 0,0.0296 0.009,0.0369 0.0462,0.0369 0.0254,0 0.92084,-0.0801 1.99339,-0.17817 1.06902,-0.0979 1.9581,-0.17341 1.9581,-0.16758 0.017,0.0132 -1.65645,9.42006 -1.67762,9.4377 -0.0155,0.0118 -14.00661,1.20662 -14.13009,1.20662 -0.0549,3.5e-4 -0.0612,-0.004 -0.0612,-0.0404 z m 14.67696,-0.0485 c 0.0157,-0.12437 4.81588,-26.81367 4.81588,-26.81367 0.007,-0.0142 1.02844,-0.0178 5.02756,-0.0178 h 5.00992 l -0.0129,0.075 c -0.007,0.0413 -0.67739,3.77508 -1.49062,8.30871 -0.81147,4.53362 -1.47652,8.25578 -1.47652,8.27342 0,0.0284 0.01,0.0358 0.0462,0.0358 0.0254,0 0.92084,-0.0801 1.99338,-0.17817 1.06902,-0.0979 1.95811,-0.1734 1.95811,-0.16758 0.0172,0.0132 -1.65469,9.42006 -1.67762,9.4377 -0.0159,0.0121 -14.00661,1.20662 -14.1301,1.20662 l -0.0639,3.5e-4 0.0113,-0.0891 z"
     style="fill:#ffffff;fill-opacity:1;stroke-width:0.176406"
     id="path6" />
</svg>
